# xmcd
#
# Track frame offsets: 
#        150
#        11720
#        24415
#        37613
#        50299
#        63788
#        77078
#        90761
#        101502
#        113767
#        125706
#        138299
#        151365
#        163322
#        173447
#        185690
#        197864
#        207050
#        217485
#        226946
#        238399
#        247916
#        265417
#        283671
#        296528
#        308586
#        320543
#        329990
#        340690
#
# Disc length: 4717 seconds
#
# Revision: 0
# Processed by: cddbd v1.5.2PL0 Copyright (c) Steve Scherf et al.
# Submitted via: ExactAudioCopyFreeDBPlugin 1.0
#
DISCID=9d126b1d
DTITLE=Various Artist - Stax '68 - A Memphis Story [CD4]
DYEAR=2018
DGENRE=Soul
TTITLE0=Staple Singers - Stay With Us
TTITLE1=The Soul Children - Give 'Em Love
TTITLE2=The Soul Children - Move Over
TTITLE3=Johnnie Taylor - Who's Making Love
TTITLE4=Johnnie Taylor - I'm Trying
TTITLE5=Rufus Thomas - Funky Mississippi
TTITLE6=Rufus Thomas - So Hard to Get Along With
TTITLE7=Carla Thomas - Where Do I Go
TTITLE8=Carla Thomas - I've Fallen in Love
TTITLE9=The Mad Lads - So Nice
TTITLE10=The Mad Lads - Make Room
TTITLE11=Charmells - Lovin' Feeling
TTITLE12=Charmells - Sea Shell
TTITLE13=Jeanne and the Darlings - It's Unbelievable (How You Control My
TTITLE13=Soul)
TTITLE14=Jeanne and the Darlings - I Like What You're Doing to Me
TTITLE15=Southwest F.O.B. - Smell of Incense
TTITLE16=Southwest F.O.B. - Green Skies
TTITLE17=The Village Sound - Sally's Got a Good Thing
TTITLE18=The Village Sound - The La La Song
TTITLE19=Eddie Floyd - Bring It on Home to Me
TTITLE20=Eddie Floyd - Sweet Things You Do
TTITLE21=Booker T. and The MG's - Hang 'Em High
TTITLE22=Booker T. and The MG's - Over Easy
TTITLE23=Ollie and the Nightingales - You're Leaving Me
TTITLE24=Ollie and the Nightingales - Showered with Love
TTITLE25=The Pop Corn Generation - Kitchy Kitchy Koo
TTITLE26=The Pop Corn Generation - Shake It
TTITLE27=Bar-Kays - Copy Kat
TTITLE28=Bar-Kays - In the Hole
EXTD=
EXTT0=
EXTT1=
EXTT2=
EXTT3=
EXTT4=
EXTT5=
EXTT6=
EXTT7=
EXTT8=
EXTT9=
EXTT10=
EXTT11=
EXTT12=
EXTT13=
EXTT14=
EXTT15=
EXTT16=
EXTT17=
EXTT18=
EXTT19=
EXTT20=
EXTT21=
EXTT22=
EXTT23=
EXTT24=
EXTT25=
EXTT26=
EXTT27=
EXTT28=
PLAYORDER=
